<svg aria-hidden="true" style="position:absolute;width:0;height:0;overflow:hidden" xmlns="http://www.w3.org/2000/svg"><defs>

<symbol id="btn-left-mob" viewBox="0 0 25 32"><path fill="#fff" style="fill:var(--color1, #fff)" d="M0 0h.576v6.641H0V0z"/><path fill="#fff" style="fill:var(--color1, #fff)" d="M0 0h25.358v.604H0V0zM0 32h.576v-6.642H0V32z"/><path fill="#fff" style="fill:var(--color1, #fff)" d="M0 32h25.358v-.604H0V32z"/></symbol>



<symbol id="btn-right-mob" viewBox="0 0 25 32"><path fill="#fff" style="fill:var(--color1, #fff)" d="M25.358 0h-.576v6.641h.576V0z"/><path fill="#fff" style="fill:var(--color1, #fff)" d="M25.358 0H0v.604h25.358V0zM25.358 32h-.576v-6.642h.576V32z"/><path fill="#fff" style="fill:var(--color1, #fff)" d="M25.358 32H0v-.604h25.358V32z"/></symbol>

<symbol id="hero-logo" viewBox="0 0 73 32">
<path fill="#fff" style="fill: var(--color1, #fff)" d="M2.151 22.154l7.229-14.295v-0.121h-8.361v-2.143h10.948v2.215l-7.204 14.344h-2.612z"></path>
<path fill="#fff" style="fill: var(--color1, #fff)" d="M20.46 22.154h-4.334v-16.559h4.754c1.525 0 2.83 0.329 3.913 0.986 1.089 0.652 1.922 1.59 2.498 2.814 0.582 1.224 0.871 2.695 0.865 4.415-0.005 1.763-0.313 3.267-0.922 4.512-0.604 1.24-1.48 2.189-2.628 2.846-1.143 0.658-2.525 0.986-4.148 0.986zM16.643 21.636h3.816c1.531 0 2.833-0.31 3.905-0.93 1.073-0.625 1.887-1.523 2.442-2.693 0.561-1.17 0.838-2.571 0.833-4.205-0.005-1.612-0.275-2.992-0.809-4.14-0.528-1.148-1.294-2.027-2.296-2.636-1.003-0.615-2.221-0.922-3.655-0.922h-4.237v15.524zM31.355 22.154h-0.55l5.919-16.559h0.712l5.919 16.559h-0.55l-5.692-15.913h-0.065l-5.692 15.913zM33.231 16.041h7.698v0.517h-7.698v-0.517zM44.203 5.594h0.647l5.531 8.118h0.065l5.531-8.118h0.647l-5.951 8.7v7.859h-0.517v-7.859l-5.951-8.7zM69.865 9.734c-0.081-1.132-0.515-2.062-1.302-2.79-0.782-0.728-1.814-1.092-3.097-1.092-0.841 0-1.593 0.162-2.256 0.485s-1.186 0.768-1.569 1.334c-0.383 0.561-0.574 1.205-0.574 1.933 0 0.42 0.070 0.809 0.21 1.164s0.353 0.682 0.639 0.978c0.291 0.291 0.655 0.555 1.092 0.792 0.442 0.232 0.959 0.439 1.552 0.623l1.876 0.582c0.717 0.221 1.337 0.469 1.86 0.744s0.954 0.585 1.294 0.93c0.345 0.34 0.601 0.72 0.768 1.14 0.167 0.415 0.251 0.879 0.251 1.391 0 0.862-0.222 1.631-0.663 2.304s-1.059 1.202-1.852 1.585c-0.792 0.383-1.711 0.574-2.757 0.574-1.008 0-1.889-0.175-2.644-0.526-0.754-0.356-1.353-0.844-1.795-1.463-0.437-0.625-0.682-1.342-0.736-2.151h0.517c0.054 0.712 0.278 1.34 0.671 1.884s0.927 0.97 1.601 1.278c0.679 0.307 1.474 0.461 2.385 0.461 0.949 0 1.778-0.164 2.49-0.493 0.717-0.334 1.272-0.798 1.665-1.391 0.399-0.593 0.599-1.28 0.599-2.062 0-0.593-0.13-1.113-0.388-1.561-0.258-0.453-0.666-0.852-1.221-1.197s-1.28-0.655-2.175-0.93l-1.876-0.582c-1.299-0.41-2.272-0.951-2.919-1.625-0.641-0.674-0.962-1.49-0.962-2.45 0-0.814 0.213-1.542 0.639-2.183 0.426-0.647 1.008-1.156 1.747-1.528 0.743-0.372 1.587-0.558 2.53-0.558 0.949 0 1.782 0.189 2.498 0.566s1.286 0.897 1.706 1.561c0.421 0.663 0.658 1.42 0.712 2.272h-0.518z"></path>
<path fill="#fff" style="fill: var(--color1, #fff)" d="M4.043 24.783h0.49v3.873c-0.002 0.35-0.065 0.642-0.189 0.876-0.124 0.233-0.295 0.406-0.514 0.522s-0.469 0.173-0.753 0.173c-0.278 0-0.526-0.052-0.745-0.155s-0.391-0.248-0.517-0.435c-0.124-0.187-0.186-0.406-0.186-0.658h0.483c0 0.159 0.042 0.3 0.126 0.422 0.084 0.121 0.198 0.215 0.344 0.283 0.147 0.068 0.312 0.102 0.496 0.102 0.191 0 0.357-0.040 0.501-0.121 0.145-0.080 0.259-0.204 0.341-0.37 0.082-0.168 0.123-0.381 0.123-0.64v-3.873zM16.197 27.469c0 0.559-0.1 1.046-0.299 1.461-0.199 0.413-0.474 0.733-0.823 0.96-0.348 0.226-0.748 0.338-1.201 0.338s-0.854-0.113-1.204-0.338c-0.348-0.227-0.621-0.547-0.821-0.96-0.198-0.414-0.296-0.901-0.296-1.461s0.099-1.045 0.296-1.458c0.199-0.414 0.474-0.734 0.823-0.96 0.35-0.227 0.75-0.341 1.201-0.341 0.453 0 0.853 0.114 1.201 0.341 0.35 0.226 0.624 0.545 0.823 0.96 0.199 0.413 0.299 0.899 0.299 1.458zM15.72 27.469c0-0.481-0.080-0.892-0.241-1.235-0.161-0.344-0.38-0.608-0.658-0.789s-0.594-0.273-0.947-0.273c-0.351 0-0.666 0.091-0.944 0.273s-0.498 0.444-0.661 0.787c-0.161 0.343-0.241 0.755-0.241 1.238 0 0.481 0.080 0.892 0.241 1.235s0.38 0.606 0.658 0.789c0.278 0.182 0.593 0.273 0.947 0.273s0.669-0.091 0.947-0.273c0.28-0.182 0.5-0.444 0.661-0.787 0.161-0.344 0.24-0.757 0.239-1.238zM26.796 24.783h0.49v3.556c0 0.365-0.086 0.692-0.257 0.981-0.171 0.287-0.41 0.513-0.716 0.679-0.304 0.164-0.658 0.246-1.062 0.246-0.402 0-0.756-0.083-1.062-0.249s-0.545-0.392-0.716-0.679-0.257-0.613-0.257-0.978v-3.556h0.49v3.522c0 0.285 0.064 0.539 0.191 0.763 0.128 0.222 0.307 0.397 0.538 0.524 0.233 0.128 0.504 0.191 0.816 0.191s0.583-0.064 0.816-0.191c0.233-0.128 0.412-0.302 0.538-0.524 0.128-0.224 0.191-0.478 0.191-0.763v-3.522zM34.546 30.154v-5.371h1.733c0.381 0 0.699 0.069 0.955 0.207 0.257 0.136 0.45 0.326 0.58 0.569 0.131 0.241 0.197 0.518 0.197 0.831s-0.066 0.589-0.197 0.829c-0.129 0.239-0.322 0.427-0.577 0.561s-0.572 0.202-0.949 0.202h-1.476v-0.448h1.463c0.28 0 0.512-0.046 0.698-0.139 0.187-0.093 0.326-0.225 0.417-0.396 0.093-0.171 0.139-0.374 0.139-0.608s-0.046-0.439-0.139-0.614c-0.093-0.177-0.233-0.313-0.42-0.409-0.185-0.096-0.42-0.144-0.703-0.144h-1.23v4.93h-0.49zM36.914 27.731l1.322 2.423h-0.566l-1.309-2.423h0.553zM49.221 24.783v5.371h-0.477l-3.173-4.497h-0.042v4.497h-0.49v-5.371h0.475l3.184 4.503h0.042v-4.503h0.482zM56.483 30.154v-5.371h3.115v0.441h-2.625v2.022h2.46v0.441h-2.46v2.027h2.677v0.441h-3.168zM66.198 24.783h0.567l1.591 2.549h0.047l1.592-2.549h0.566l-1.938 3.045v2.326h-0.487v-2.326l-1.938-3.045z"></path>
</symbol>


<symbol id="btn-left-desc" viewBox="0 0 20 32">
<path fill="#fff" style="fill: var(--color1, #fff)" d="M0 0h0.451v4.958h-0.451v-4.958z"></path>
<path fill="#fff" style="fill: var(--color1, #fff)" d="M0 0h19.831v0.451h-19.831v-0.451z"></path>
<path fill="#fff" style="fill: var(--color1, #fff)" d="M0 32h0.451v-4.958h-0.451v4.958z"></path>
<path fill="#fff" style="fill: var(--color1, #fff)" d="M0 32h19.831v-0.451h-19.831v0.451z"></path>
</symbol>




<symbol id="btn-right-desc" viewBox="0 0 20 32">
<path fill="#fff" style="fill: var(--color1, #fff)" d="M19.831 0h-0.451v4.958h0.451v-4.958z"></path>
<path fill="#fff" style="fill: var(--color1, #fff)" d="M19.831 0h-19.831v0.451h19.831v-0.451z"></path>
<path fill="#fff" style="fill: var(--color1, #fff)" d="M19.831 32h-0.451v-4.958h0.451v4.958z"></path>
<path fill="#fff" style="fill: var(--color1, #fff)" d="M19.831 32h-19.831v-0.451h19.831v0.451z"></path>
</symbol>
</defs></svg>